<svg xmlns="http://www.w3.org/2000/svg" version="1.1" xmlns:xlink="http://www.w3.org/1999/xlink" xmlns:svgjs="http://svgjs.dev/svgjs" width="1500" height="1205" viewBox="0 0 1500 1205"><g transform="matrix(1,0,0,1,0,0)"><svg viewBox="0 0 448 360" data-background-color="#ffffff" preserveAspectRatio="xMidYMid meet" height="1205" width="1500" xmlns="http://www.w3.org/2000/svg" xmlns:xlink="http://www.w3.org/1999/xlink"><g id="tight-bounds" transform="matrix(1,0,0,1,0,0)"><svg viewBox="0 0 448 360" height="360" width="448"><g><svg></svg></g><g><svg viewBox="0 0 448 360" height="360" width="448"><g><path d="M193.855 44.683c1.378 0 2.494 1.116 2.495 2.494 0 1.378-1.116 2.494-2.495 2.495h-23.846l-17.167 17.167c-0.973 0.973-2.551 0.973-3.53 0-0.973-0.973-0.973-2.551 0-3.529l13.644-13.645h-40.378c-11.518 0-19.151 2.688-23.815 8.113-4.739 5.519-6.66 14.056-6.66 25.63 0 0.069 0 0.137-0.006 0.206l0.212 36.692 14.692-14.692c0.973-0.973 2.551-0.973 3.53 0 0.973 0.973 0.973 2.551 0 3.53l-18.178 18.178c0.206 35.832 0.193 71.358-0.013 107.19 25.486 25.2 50.617 50.312 75.811 75.791h25.38c1.378 0 2.494 1.116 2.495 2.495 0 1.378-1.116 2.494-2.495 2.494h-20.448l25.942 26.241 0.006-0.006c8.188 8.188 15.577 12.859 22.824 13.413 7.146 0.543 14.442-2.956 22.586-11.093l28.555-28.555h-20.722c-1.378 0-2.494-1.116-2.495-2.494 0-1.378 1.116-2.494 2.495-2.495h25.711l16.625-16.625c0.973-0.973 2.551-0.973 3.529 0 0.973 0.973 0.973 2.551 0 3.53l-13.101 13.102h40.377c11.518 0 19.151-2.688 23.815-8.113 4.739-5.519 6.66-14.056 6.66-25.63h0.013l-0.212-36.898-16.014 16.014c-0.973 0.973-2.551 0.973-3.53 0-0.973-0.973-0.973-2.551 0-3.53l19.5-19.5c-0.206-35.832-0.193-71.358 0.013-107.19-25.486-25.2-50.617-50.312-75.811-75.791h-26.147c-1.378 0-2.494-1.116-2.495-2.495 0-1.378 1.116-2.494 2.495-2.494h21.215l-25.824-26.123c-0.044-0.037-0.081-0.075-0.124-0.112-8.188-8.188-15.577-12.859-22.824-13.413-7.146-0.543-14.442 2.956-22.586 11.093l-28.555 28.555h18.858zM122.578 44.683h45.367l32.078-32.078c9.248-9.248 17.81-13.195 26.484-12.534 8.568 0.649 16.956 5.824 25.985 14.854 0.05 0.05 0.094 0.094 0.137 0.143l29.278 29.615h43.508c13.071 0 21.919 3.268 27.594 9.871 5.6 6.517 7.864 16.101 7.864 28.867 0 0.081-0.006 0.156-0.012 0.23l-0.225 39.742 28.43 28.112 0.006-0.006c9.03 9.03 14.206 17.411 14.854 25.985 0.661 8.674-3.293 17.236-12.534 26.484l-30.768 30.768 0.237 41.843h0.012c0 12.765-2.27 22.35-7.864 28.867-5.675 6.604-14.524 9.872-27.594 9.871h-45.366l-32.078 32.078c-9.248 9.248-17.81 13.195-26.484 12.534-8.568-0.649-16.956-5.824-25.985-14.854l0.006-0.006-29.421-29.758h-43.509c-13.071 0-21.919-3.268-27.594-9.872-5.6-6.517-7.864-16.101-7.863-28.866h0.012l0.231-39.972-28.293-27.969c-0.05-0.044-0.1-0.087-0.143-0.137-9.03-9.03-14.206-17.411-14.854-25.985-0.661-8.674 3.293-17.236 12.534-26.484l30.768-30.768-0.237-41.607c-0.006-0.075-0.012-0.156-0.012-0.23 0-12.765 2.27-22.35 7.864-28.867 5.675-6.604 14.524-9.872 27.594-9.871zM87.682 179.997l-0.274-47.724-27.276 27.276c-8.138 8.138-11.636 15.44-11.094 22.587 0.549 7.246 5.226 14.642 13.413 22.823 0.037 0.037 0.081 0.081 0.113 0.125l24.837 24.551 0.281-49.644zM92.303 241.483l-0.2 35.09h0.013c0 11.58 1.921 20.117 6.66 25.63 4.664 5.432 12.297 8.113 23.815 8.113h38.576l-33.55-33.936-35.308-34.903zM325.415 49.672h-38.575l33.549 33.936 35.308 34.902 0.2-34.884c-0.006-0.069-0.006-0.137-0.007-0.205 0-11.58-1.921-20.117-6.66-25.63-4.664-5.432-12.297-8.113-23.815-8.113zM360.599 130.352l-0.281 49.645 0.274 47.724 27.276-27.276c8.138-8.138 11.636-15.44 11.094-22.587-0.549-7.252-5.226-14.642-13.413-22.824l0.006-0.006-24.956-24.669z" fill="#1ebbd7" fill-rule="nonzero" stroke="none" stroke-width="1" stroke-linecap="butt" stroke-linejoin="miter" stroke-miterlimit="10" stroke-dasharray="" stroke-dashoffset="0" font-family="none" font-weight="none" font-size="none" text-anchor="none" style="mix-blend-mode: normal" data-fill-palette-color="tertiary"></path></g><g transform="matrix(1,0,0,1,131.69973999999996,139.438461233622)"><svg viewBox="0 0 184.60052000000007 81.12307753275597" height="81.12307753275597" width="184.60052000000007"><g><svg viewBox="0 0 184.60052000000007 81.12307753275597" height="81.12307753275597" width="184.60052000000007"><g><svg viewBox="0 0 184.60052000000007 81.12307753275597" height="81.12307753275597" width="184.60052000000007"><g><path d="M0 81.123v-81.123h184.601v81.123z" fill="#1ebbd7" stroke="transparent" stroke-width="0" rx="0%" data-fill-palette-color="tertiary"></path><path d="M3.283 77.84v-74.557h178.034v74.557z" fill="#ffffff" stroke="transparent" stroke-width="0" rx="0%" data-fill-palette-color="quaternary"></path><path d="M9.85 71.273v-61.423h164.901v61.423z" fill="#1ebbd7" stroke="transparent" stroke-width="0" data-fill-palette-color="tertiary"></path></g><g transform="matrix(1,0,0,1,19.699740000000013,19.69974)" id="textblocktransform"><svg viewBox="0 0 145.20104000000006 41.723597532755974" height="41.723597532755974" width="145.20104000000006" id="textblock"><g><svg viewBox="0 0 145.20104000000006 22.534748137637468" height="22.534748137637468" width="145.20104000000006"><g transform="matrix(1,0,0,1,0,0)"><svg width="145.20104000000006" viewBox="2.39 -31.3 275.27000000000004 42.730000000000004" height="22.534748137637468" data-palette-color="#ffffff"><path d="M31.01-14.45L31.01-14.45Q31.01-11.82 30.05-9.3 29.1-6.79 27.25-4.61 25.39-2.44 22.27-1.15 19.14 0.15 15.14 0.15L15.14 0.15Q14.79 0.15 13.16 0.12 11.52 0.1 8.64 0.07 5.76 0.05 2.39 0.05L2.39 0.05 2.39-0.73Q6.35-1.07 6.69-2.98L6.69-2.98 6.69-27.59Q6.64-28.22 6.35-28.69 6.05-29.15 5.35-29.37 4.64-29.59 4.32-29.66 4-29.74 3.03-29.83L3.03-29.83 3.03-30.71Q5.91-30.71 10.55-30.76 15.19-30.81 16.41-30.81L16.41-30.81Q18.8-30.81 21.19-29.96 23.58-29.1 25.88-27.32 28.17-25.54 29.59-22.19 31.01-18.85 31.01-14.45ZM25.68-14.16L25.68-14.16Q25.68-14.31 25.68-14.45L25.68-14.45Q25.68-18.31 25.22-20.9 24.76-23.49 23.54-25.51 22.31-27.54 20.09-28.49 17.87-29.44 14.5-29.44L14.5-29.44Q13.04-29.44 11.43-29.3L11.43-29.3Q11.43-28.03 11.43-24.9L11.43-24.9Q11.43-22.22 11.43-15.72 11.43-9.23 11.43-6.93L11.43-6.93Q11.43-4.1 11.43-3.32L11.43-3.32Q11.43-2.39 12.18-1.64 12.94-0.88 14.11-0.88L14.11-0.88Q17.68-0.88 19.95-1.61 22.22-2.34 23.46-4.08 24.71-5.81 25.17-8.13 25.63-10.45 25.68-14.16ZM41.06-31.3L41.06-31.3Q42.19-31.3 43.11-30.49 44.04-29.69 44.04-28.61L44.04-28.61Q44.04-27.29 43.19-26.44 42.33-25.59 41.06-25.59L41.06-25.59Q40.13-25.59 39.26-26.37 38.38-27.15 38.38-28.32L38.38-28.32Q38.38-29.54 39.23-30.42 40.09-31.3 41.06-31.3ZM43.31-20.61L43.31-20.61Q43.21-12.16 43.21-1.81L43.21-1.81Q43.41-0.83 46.63-0.78L46.63-0.78 46.63 0Q44.63-0.15 41.31-0.15L41.31-0.15Q38.13-0.15 36.23 0L36.23 0 36.23-0.78Q39.16-0.88 39.3-1.81L39.3-1.81 39.3-18.21Q37.79-18.7 36.23-18.7L36.23-18.7 36.23-19.48Q40.62-19.73 43.31-20.61ZM69.62-16.5L69.62-16.5Q69.04-16.5 68.28-17.43 67.52-18.36 67.33-18.36L67.33-18.36Q66.11-18.36 65.47-17.58L65.47-17.58 66.06-17.14Q66.55-16.7 67.04-15.53 67.52-14.36 67.52-12.84L67.52-12.84Q67.52-9.42 65.01-7.45 62.5-5.47 59.76-5.47L59.76-5.47Q58.44-5.47 57.08-5.91L57.08-5.91 55.76-6.3 55.22-6.1Q54.73-5.86 54.24-5.35 53.75-4.83 53.71-4.35L53.71-4.35Q53.75-2.73 56.88-2.73L56.88-2.73Q61.18-2.73 62.93-2.39L62.93-2.39Q66.01-1.86 67.62-0.63 69.23 0.59 69.23 3.52L69.23 3.52Q69.23 7.18 66.04 9.3 62.84 11.43 58.05 11.43L58.05 11.43Q54 11.43 52.02 9.91 50.04 8.4 50.04 6.25L50.04 6.25Q50.04 4.49 51.48 3.32 52.92 2.15 55.71 1.12L55.71 1.12Q55.66 1.12 55.46 1.12 55.27 1.12 55.22 1.12L55.22 1.12Q53.8 1.12 52.53 0.1 51.26-0.93 51.26-2.78L51.26-2.78Q51.26-3.76 51.9-4.66 52.53-5.57 53.14-5.93 53.75-6.3 54.73-6.79L54.73-6.79Q54.54-6.93 54.02-7.54 53.51-8.15 52.95-8.81 52.39-9.47 52-10.55 51.61-11.62 51.61-12.7L51.61-12.7Q51.61-15.43 53.8-17.58 56-19.73 59.32-19.73L59.32-19.73Q60.93-19.73 62.32-19.38 63.72-19.04 64.3-18.7L64.3-18.7 64.89-18.36Q67.13-20.36 68.79-20.36L68.79-20.36Q71.09-20.36 71.09-18.51L71.09-18.51Q71.09-16.5 69.62-16.5ZM63.91-12.74L63.91-12.74Q63.91-15.63 62.54-17.26 61.18-18.9 59.57-18.9L59.57-18.9Q58.1-18.9 56.78-17.14 55.46-15.38 55.46-12.84L55.46-12.84Q55.46-10.11 56.61-8.2 57.76-6.3 59.71-6.3L59.71-6.3Q61.52-6.3 62.71-7.86 63.91-9.42 63.91-12.74ZM66.01 5.76L66.01 5.76Q66.01 2.98 64.13 2.1 62.25 1.22 57.08 1.22L57.08 1.22 56.25 1.61Q55.37 1.95 54.46 3.13 53.56 4.3 53.56 5.91L53.56 5.91Q53.56 7.67 54.88 9.13 56.2 10.6 58.88 10.6L58.88 10.6Q62.3 10.6 64.16 9.16 66.01 7.71 66.01 5.76ZM79.63-31.3L79.63-31.3Q80.75-31.3 81.68-30.49 82.61-29.69 82.61-28.61L82.61-28.61Q82.61-27.29 81.76-26.44 80.9-25.59 79.63-25.59L79.63-25.59Q78.7-25.59 77.82-26.37 76.95-27.15 76.95-28.32L76.95-28.32Q76.95-29.54 77.8-30.42 78.65-31.3 79.63-31.3ZM81.88-20.61L81.88-20.61Q81.78-12.16 81.78-1.81L81.78-1.81Q81.97-0.83 85.2-0.78L85.2-0.78 85.2 0Q83.2-0.15 79.88-0.15L79.88-0.15Q76.7-0.15 74.8 0L74.8 0 74.8-0.78Q77.73-0.88 77.87-1.81L77.87-1.81 77.87-18.21Q76.36-18.7 74.8-18.7L74.8-18.7 74.8-19.48Q79.19-19.73 81.88-20.61ZM97.94-1.81L97.94-1.81Q99.01-3.17 99.01-4.59L99.01-4.59 99.06-29.54Q93.98-29.59 93.94-29.59L93.94-29.59Q92.76-29.59 91.84-28.71 90.91-27.83 90.42-26.54 89.93-25.24 89.61-24 89.3-22.75 89.25-21.63L89.25-21.63 88.32-21.63 88.52-30.71Q93.98-30.57 102.43-30.57L102.43-30.57Q110.39-30.57 114.69-30.71L114.69-30.71 114.83-21.63 113.86-21.63Q113.42-29.44 109.8-29.49L109.8-29.49 104.09-29.54 104.14-4.59Q104.14-2.88 105.07-1.81L105.07-1.81Q105.8-0.93 109.07-0.88L109.07-0.88 109.07 0.05 94.08 0.05 94.08-0.88Q94.18-0.88 94.37-0.88 94.57-0.88 94.67-0.88L94.67-0.88Q97.26-0.93 97.94-1.81ZM132.46-20.31L132.46-20.31Q134.31-20.31 135.31-19.21 136.32-18.12 136.32-16.06L136.32-16.06Q136.32-14.84 135.49-13.82 134.66-12.79 133.58-12.79L133.58-12.79Q132.8-12.79 131.97-13.48 131.14-14.16 131.09-15.09L131.09-15.09Q131.09-16.16 132.51-17.14L132.51-17.14Q132.36-17.58 131.99-18.02 131.63-18.46 130.85-18.46L130.85-18.46Q129.48-18.46 128.23-16.97 126.99-15.48 126.45-14.01L126.45-14.01 125.92-12.5 126.01-2.05Q126.06-1.07 129.38-0.78L129.38-0.78 129.38 0Q127.33-0.15 124.06-0.15L124.06-0.15Q120.98-0.15 118.98 0L118.98 0 118.98-0.78Q119.71-0.83 120.91-1.27 122.11-1.71 122.11-2.05L122.11-2.05 122.11-18.21Q121.47-18.6 118.98-18.7L118.98-18.7 118.88-19.48Q121.67-19.48 125.52-20.46L125.52-20.46 126.06-14.6Q126.84-16.7 128.45-18.51 130.07-20.31 132.46-20.31ZM159.12-4.05L159.12-4.05 159.85-3.61Q159.21 0.34 155.16 0.34L155.16 0.34Q153.5 0.34 152.67-0.76 151.84-1.86 151.69-3.37L151.69-3.37Q150.72-2.25 150.2-1.76 149.69-1.27 148.28-0.42 146.86 0.44 145.44 0.44L145.44 0.44Q143 0.44 141.24-0.93 139.49-2.29 139.49-5.27L139.49-5.27Q139.49-6.59 140.05-7.57 140.61-8.54 141.61-9.16 142.61-9.77 143.64-10.16 144.66-10.55 146.03-10.72 147.4-10.89 148.3-10.94 149.2-10.99 150.3-11.01 151.4-11.04 151.5-11.04L151.5-11.04Q151.65-11.04 151.65-14.65L151.65-14.65Q151.65-19.29 147.4-19.29L147.4-19.29Q145.93-19.29 145.05-18.65 144.17-18.02 143.98-17.14L143.98-17.14Q145.4-17.14 145.4-14.99L145.4-14.99Q145.4-13.67 144.52-13.11 143.64-12.55 142.81-12.55L142.81-12.55Q141.88-12.55 141.15-13.4 140.41-14.26 140.41-15.28L140.41-15.28Q140.41-17.09 142.71-18.8L142.71-18.8Q144.57-20.21 147.84-20.21L147.84-20.21Q150.91-20.21 153.31-18.31 155.7-16.41 155.7-13.13L155.7-13.13Q155.7-11.52 155.6-8.64 155.5-5.76 155.5-4.49L155.5-4.49Q155.5-1.22 157.02-1.27L157.02-1.27Q157.9-1.27 158.33-1.9 158.77-2.54 159.12-4.05ZM151.5-4.59L151.5-4.59 151.5-10.35Q149.79-10.21 148.35-10.03 146.91-9.86 145.88-9.5 144.86-9.13 144.27-8.25 143.69-7.37 143.69-5.81L143.69-5.81Q143.69-3.71 144.74-2.73 145.79-1.76 147.4-1.76L147.4-1.76Q149.94-1.76 151.5-4.59ZM163.02-18.21L163.02-18.99Q163.46-18.95 163.95-18.95L163.95-18.95Q166.68-18.95 169.71-19.92L169.71-19.92 170.1-15.09Q173.18-19.78 176.69-19.82L176.69-19.82Q178.35-19.82 179.65-19.29 180.94-18.75 181.67-17.94 182.4-17.14 182.87-16.06 183.33-14.99 183.5-14.04 183.67-13.09 183.67-12.11L183.67-12.11 183.67-2.1Q183.67-1.61 184.85-1.2 186.02-0.78 186.9-0.78L186.9-0.78 186.9 0Q181.96-0.2 180.79-0.2L180.79-0.2Q178.3-0.2 176.4 0L176.4 0 176.4-0.78Q177.38-0.83 178.5-1.22 179.62-1.61 179.62-2.05L179.62-2.05Q179.67-2.05 179.67-11.96L179.67-11.96Q179.67-14.65 178.72-16.31 177.77-17.97 175.86-17.97L175.86-17.97Q174.3-17.97 172.49-16.46 170.69-14.94 170-12.74L170-12.74 170-1.86Q170-1.07 173.42-0.78L173.42-0.78 173.42 0Q171.42-0.15 168.1-0.15L168.1-0.15Q164.92-0.15 163.02 0L163.02 0 163.02-0.78Q164-0.78 165.05-1.17 166.1-1.56 166.1-2.05L166.1-2.05Q166.19-5.03 166.19-9.91L166.19-9.91Q166.19-14.55 166.1-17.53L166.1-17.53Q165.17-18.02 163.02-18.21L163.02-18.21ZM197.59 0.63L197.59 0.63Q196.61 0.63 195.24 0.15 193.88-0.34 192.95-0.78L192.95-0.78 192.12-1.32 191.87 0.1 190.95 0.1 190.85-6.74 191.68-6.64Q191.92-4.25 193.44-2.27 194.95-0.29 197.59-0.29L197.59-0.29Q202.18-0.29 202.18-4L202.18-4Q202.18-6.69 196.37-8.79L196.37-8.79Q193.88-9.67 192.53-10.89 191.19-12.11 191.19-14.21L191.19-14.21Q191.19-17.14 193.19-18.82 195.19-20.51 198.47-20.51L198.47-20.51Q199.88-20.51 201.03-20.02 202.18-19.53 202.62-19.09L202.62-19.09 203.06-18.6 203.2-20.07 204.13-20.07 204.03-13.92 203.15-13.92Q203.06-14.6 203.01-14.97 202.96-15.33 202.76-16.19 202.57-17.04 202.23-17.53 201.88-18.02 201.35-18.58 200.81-19.14 199.93-19.41 199.05-19.68 197.98-19.68L197.98-19.68Q196.46-19.68 195.51-18.73 194.56-17.77 194.56-16.31L194.56-16.31Q194.56-15.48 194.93-14.82 195.29-14.16 195.95-13.7 196.61-13.23 197.25-12.96 197.88-12.7 198.86-12.35 199.83-12.01 200.32-11.82L200.32-11.82Q205.69-9.42 205.69-5.96L205.69-5.96Q205.69-2.44 203.74-0.9 201.79 0.63 197.59 0.63ZM219.31-28.47L219.31-28.47Q219.31-28.42 219.29-25.73 219.26-23.05 219.24-19.02 219.22-14.99 219.22-11.67L219.22-11.67Q219.22-5.03 219.31-2.2L219.31-2.2Q219.36-0.78 223.02-0.78L223.02-0.78 223.07 0Q221.51-0.05 219.22-0.05L219.22-0.05Q213.94-0.05 210.23 0.15L210.23 0.15 210.23-0.63Q210.23-0.63 210.43-0.63L210.43-0.63Q214.04-0.63 214.24-1.76L214.24-1.76Q214.48-3.22 214.48-28.56L214.48-28.56Q214.48-29.1 212.72-29.49L212.72-29.49 210.92-29.83 210.92-30.57Q213.21-30.37 216.82-30.37L216.82-30.37Q220.58-30.37 222.68-30.57L222.68-30.57 222.68-29.59Q219.31-29.35 219.31-28.47ZM238.6-0.39L238.6-0.39Q241.23-0.39 242.7-2.83 244.16-5.27 244.16-9.86L244.16-9.86Q244.16-13.67 242.6-16.53 241.04-19.38 238.5-19.38L238.5-19.38Q236.79-19.38 235.57-18.46 234.35-17.53 233.79-15.94 233.23-14.36 232.96-12.79 232.69-11.23 232.69-9.52L232.69-9.52Q232.69-5.47 234.25-2.93 235.81-0.39 238.6-0.39ZM238.06-20.36L238.06-20.36Q242.41-20.36 245.43-17.33 248.46-14.31 248.46-10.4L248.46-10.4Q248.46-5.66 245.92-2.42 243.38 0.83 238.45 0.83L238.45 0.83Q228.2 0.83 228.2-10.35L228.2-10.35Q228.2-14.7 231.23-17.53 234.25-20.36 238.06-20.36ZM260.76-1.81L260.76-1.81Q261.84-3.17 261.84-4.59L261.84-4.59 261.89-29.54Q256.81-29.59 256.76-29.59L256.76-29.59Q255.59-29.59 254.66-28.71 253.73-27.83 253.24-26.54 252.76-25.24 252.44-24 252.12-22.75 252.07-21.63L252.07-21.63 251.14-21.63 251.34-30.71Q256.81-30.57 265.26-30.57L265.26-30.57Q273.21-30.57 277.51-30.71L277.51-30.71 277.66-21.63 276.68-21.63Q276.24-29.44 272.63-29.49L272.63-29.49 266.92-29.54 266.96-4.59Q266.96-2.88 267.89-1.81L267.89-1.81Q268.62-0.93 271.9-0.88L271.9-0.88 271.9 0.05 256.91 0.05 256.91-0.88Q257-0.88 257.2-0.88 257.39-0.88 257.49-0.88L257.49-0.88Q260.08-0.93 260.76-1.81Z" opacity="1" transform="matrix(1,0,0,1,0,0)" fill="#ffffff" class="wordmark-text-0" data-fill-palette-color="quaternary" id="text-0"></path></svg></g></svg></g><g transform="matrix(1,0,0,1,0,29.101328137637466)"><svg viewBox="0 0 145.20104000000006 12.622269395118506" height="12.622269395118506" width="145.20104000000006"><g transform="matrix(1,0,0,1,0,0)"><svg width="145.20104000000006" viewBox="2.2 -36.3 565.3399999999999 49.15" height="12.622269395118506" data-palette-color="#ffffff"><path d="M2.2 0L6.7-34.2 28-34.2 27.6-31.4 9.25-31.4 7.65-19.5 21.2-19.5 20.85-16.7 7.3-16.7 5.45-2.8 24.8-2.8 24.45 0 2.2 0ZM31.3-20.8Q31.05-21.65 30.52-22.43 30-23.2 29.3-23.6L29.3-23.6 31.1-25.75Q33.4-24.15 34.2-20.35L34.2-20.35 38.15-3.85 48.55-24.95 51.5-24.95 39.2 0 36.15 0 31.3-20.8ZM55.65-11.35Q55.5-9.55 55.5-9.2L55.5-9.2Q55.5-6.25 56.95-4.2 58.4-2.15 62.3-2.15L62.3-2.15Q64.45-2.15 66.27-2.73 68.09-3.3 70.4-4.55L70.4-4.55 71.5-2.35Q69.4-1 66.95-0.23 64.5 0.55 62.05 0.55L62.05 0.55Q57.5 0.55 55.07-2.15 52.65-4.85 52.65-9.45L52.65-9.45Q52.65-10.6 52.8-11.85L52.8-11.85Q53.25-15.35 54.9-18.45 56.55-21.55 59.22-23.48 61.9-25.4 65.25-25.4L65.25-25.4Q67.84-25.4 69.87-24.23 71.9-23.05 73.05-20.98 74.2-18.9 74.2-16.3L74.2-16.3Q74.2-15.85 74.09-14.85L74.09-14.85Q73.95-13.8 73.65-12.6L73.65-12.6Q73.59-12.3 73.4-11.35L73.4-11.35 55.65-11.35ZM56.15-14.05L71.05-14.25 71.25-15.3Q71.3-15.65 71.3-16.35L71.3-16.35Q71.3-19.1 69.55-20.9 67.8-22.7 65.09-22.7L65.09-22.7Q62.1-22.7 59.65-20.43 57.2-18.15 56.15-14.05L56.15-14.05ZM91.04-25.5Q92.54-25.5 93.99-25.05L93.99-25.05 93.74-22.25Q92.39-22.6 91.04-22.6L91.04-22.6Q88.49-22.6 86.84-21.25L86.84-21.25Q84.99-20.1 83.54-17.75L83.54-17.75 81.14 0 78.24 0 80.54-17.6Q80.69-18.6 80.69-19.4L80.69-19.4Q80.69-21.95 79.29-23.35L79.29-23.35 81.44-25.25Q82.24-24.7 82.87-23.58 83.49-22.45 83.64-21.2L83.64-21.2Q85.34-23.55 86.74-24.45L86.74-24.45Q88.59-25.5 91.04-25.5L91.04-25.5ZM102.39 0.7Q99.34 0.7 97.79-0.75 96.24-2.2 96.24-5.25L96.24-5.25Q96.24-6.2 96.39-7.3L96.39-7.3 99.54-31.25 102.44-31.25 101.64-25 109.24-25 108.89-22.3 101.24-22.3 99.24-7.1Q99.14-6 99.14-5.65L99.14-5.65Q99.14-3.4 100.07-2.7 100.99-2 102.44-2L102.44-2Q103.44-2 104.17-2.15 104.89-2.3 105.79-2.8L105.79-2.8 106.94-0.4Q105.09 0.7 102.39 0.7L102.39 0.7ZM116.69-36.3L119.59-36.3 117.59-21.4Q119.39-23.5 121.46-24.5 123.54-25.5 126.14-25.5L126.14-25.5Q129.64-25.5 131.39-23.78 133.14-22.05 133.14-18.9L133.14-18.9Q133.14-18.45 133.04-17.25L133.04-17.25 130.79 0 127.84 0 130.09-16.9Q130.19-17.8 130.19-18.2L130.19-18.2Q130.19-20.35 129.09-21.53 127.99-22.7 125.74-22.7L125.74-22.7Q123.39-22.7 121.36-21.43 119.34-20.15 117.19-17.65L117.19-17.65 114.79 0 111.89 0 116.69-36.3ZM138.09 0L141.39-25.05 144.29-25.05 140.99 0 138.09 0ZM143.29-28.25Q142.49-28.25 141.94-28.8 141.39-29.35 141.39-30.15L141.39-30.15Q141.39-31.15 142.04-31.83 142.69-32.5 143.59-32.5L143.59-32.5Q144.44-32.5 144.99-31.95 145.54-31.4 145.54-30.55L145.54-30.55Q145.54-29.6 144.86-28.93 144.19-28.25 143.29-28.25L143.29-28.25ZM151.68-17.75Q151.83-18.65 151.83-19.55L151.83-19.55Q151.83-22.05 150.48-23.6L150.48-23.6 152.48-25.35Q153.48-24.55 154.01-23.38 154.53-22.2 154.58-20.9L154.58-20.9Q156.53-23.25 158.66-24.38 160.78-25.5 163.53-25.5L163.53-25.5Q166.88-25.5 168.76-23.8 170.63-22.1 170.63-18.9L170.63-18.9Q170.63-17.85 170.53-17.25L170.53-17.25 168.13 0 165.28 0 167.58-16.9Q167.68-18 167.68-18.4L167.68-18.4Q167.68-22.8 163.18-22.8L163.18-22.8Q160.68-22.8 158.78-21.55 156.88-20.3 154.63-17.65L154.63-17.65 152.23 0 149.33 0 151.68-17.75ZM184.38 12.85Q174.23 12.85 174.23 5.05L174.23 5.05Q174.23 3.9 174.33 3.25L174.33 3.25Q174.43 2.35 174.66 1.48 174.88 0.6 174.98 0.25L174.98 0.25Q175.18-0.3 175.33-1.05L175.33-1.05Q174.63-1.7 174.16-2.68 173.68-3.65 173.68-4.8L173.68-4.8Q173.68-5.35 173.73-5.6L173.73-5.6Q173.88-6.95 174.76-8.43 175.63-9.9 177.48-10.7L177.48-10.7Q178.08-10.95 178.81-11.05 179.53-11.15 180.48-11.2L180.48-11.2Q179.33-13.05 179.33-15.55L179.33-15.55Q179.33-16.35 179.38-16.75L179.38-16.75Q179.73-19.45 181.23-21.48 182.73-23.5 184.93-24.55 187.13-25.6 189.58-25.6L189.58-25.6Q191.38-25.6 192.98-24.85L192.98-24.85 201.03-24.9 200.68-22.35 196.28-22.6Q197.78-20.65 197.78-18.05L197.78-18.05Q197.78-17.05 197.68-16.55L197.68-16.55Q197.18-12.5 194.38-10.23 191.58-7.95 187.53-7.95L187.53-7.95Q184.88-7.95 182.98-9.05L182.98-9.05 181.08-9.1Q179.88-9.1 179.43-8.9L179.43-8.9Q178.53-8.75 177.61-7.78 176.68-6.8 176.48-5.35L176.48-5.35Q176.28-3.8 177.28-3.2 178.28-2.6 180.38-2.6L180.38-2.6 183.88-2.7 187.83-2.8Q192.48-2.8 195.13-1.15 197.78 0.5 197.78 3.75L197.78 3.75Q197.78 4.45 197.73 4.8L197.73 4.8Q197.18 9 193.41 10.93 189.63 12.85 184.38 12.85L184.38 12.85ZM187.68-10.55Q191.03-10.55 192.96-12.63 194.88-14.7 194.88-17.85L194.88-17.85Q194.88-20.25 193.46-21.58 192.03-22.9 189.48-22.9L189.48-22.9Q186.23-22.9 184.21-20.8 182.18-18.7 182.18-15.4L182.18-15.4Q182.18-13.05 183.68-11.8 185.18-10.55 187.68-10.55L187.68-10.55ZM184.43 10.15Q188.83 10.15 191.63 8.85 194.43 7.55 194.83 4.6L194.83 4.6Q194.88 4.35 194.88 3.95L194.88 3.95Q194.88 1.35 192.66 0.63 190.43-0.1 187.73-0.1L187.73-0.1Q185.43-0.1 183.53 0L183.53 0 181.43 0.05Q178.98 0.05 177.68-0.2L177.68-0.2 177.28 3.2Q177.18 4.3 177.18 4.75L177.18 4.75Q177.18 7.85 178.86 9 180.53 10.15 184.43 10.15L184.43 10.15ZM226.33 0.35Q221.63 0.35 219-2.35 216.38-5.05 216.38-9.8L216.38-9.8Q216.38-11.05 216.53-12.3L216.53-12.3Q217.03-16.3 218.88-19.33 220.73-22.35 223.58-24 226.43-25.65 229.88-25.65L229.88-25.65Q231.88-25.65 233.45-24.93 235.03-24.2 236.68-22.55L236.68-22.55 234.58-20.85Q233.63-22 232.53-22.48 231.43-22.95 229.78-22.95L229.78-22.95Q225.68-22.95 222.85-19.93 220.03-16.9 219.38-11.85L219.38-11.85Q219.23-10.8 219.23-9.8L219.23-9.8Q219.23-6.2 221.13-4.28 223.03-2.35 226.68-2.35L226.68-2.35Q230.18-2.35 234.68-4.75L234.68-4.75 235.83-2.55Q233.68-1.15 231.18-0.4 228.68 0.35 226.33 0.35L226.33 0.35ZM250.92 0.5Q247.77 0.5 245.42-0.85 243.07-2.2 241.8-4.67 240.52-7.15 240.52-10.35L240.52-10.35Q240.52-11.4 240.67-12.6L240.67-12.6Q241.12-16.35 243.02-19.28 244.92-22.2 247.8-23.85 250.67-25.5 254.07-25.5L254.07-25.5Q257.17-25.5 259.52-24.1 261.87-22.7 263.17-20.23 264.47-17.75 264.47-14.5L264.47-14.5Q264.47-13.5 264.32-12.35L264.32-12.35Q263.82-8.6 261.95-5.68 260.07-2.75 257.2-1.13 254.32 0.5 250.92 0.5L250.92 0.5ZM251.02-2.2Q255.07-2.2 257.95-5.1 260.82-8 261.47-12.65L261.47-12.65Q261.62-13.65 261.62-14.55L261.62-14.55Q261.62-18.3 259.57-20.55 257.52-22.8 254.02-22.8L254.02-22.8Q251.32-22.8 249.07-21.45 246.82-20.1 245.37-17.73 243.92-15.35 243.52-12.3L243.52-12.3Q243.37-11.35 243.37-10.4L243.37-10.4Q243.37-6.65 245.42-4.42 247.47-2.2 251.02-2.2L251.02-2.2ZM270.92-17.75Q271.07-18.65 271.07-19.55L271.07-19.55Q271.07-22.05 269.72-23.6L269.72-23.6 271.72-25.35Q272.72-24.55 273.25-23.38 273.77-22.2 273.82-20.9L273.82-20.9Q275.77-23.25 277.9-24.38 280.02-25.5 282.77-25.5L282.77-25.5Q286.12-25.5 288-23.8 289.87-22.1 289.87-18.9L289.87-18.9Q289.87-17.85 289.77-17.25L289.77-17.25 287.37 0 284.52 0 286.82-16.9Q286.92-18 286.92-18.4L286.92-18.4Q286.92-22.8 282.42-22.8L282.42-22.8Q279.92-22.8 278.02-21.55 276.12-20.3 273.87-17.65L273.87-17.65 271.47 0 268.57 0 270.92-17.75ZM297.37-17.75Q297.52-18.65 297.52-19.55L297.52-19.55Q297.52-22.05 296.17-23.6L296.17-23.6 298.17-25.35Q299.17-24.55 299.69-23.38 300.22-22.2 300.27-20.9L300.27-20.9Q302.22-23.25 304.34-24.38 306.47-25.5 309.22-25.5L309.22-25.5Q312.57-25.5 314.44-23.8 316.32-22.1 316.32-18.9L316.32-18.9Q316.32-17.85 316.22-17.25L316.22-17.25 313.82 0 310.97 0 313.27-16.9Q313.37-18 313.37-18.4L313.37-18.4Q313.37-22.8 308.87-22.8L308.87-22.8Q306.37-22.8 304.47-21.55 302.57-20.3 300.32-17.65L300.32-17.65 297.92 0 295.02 0 297.37-17.75ZM323.87-11.35Q323.72-9.55 323.72-9.2L323.72-9.2Q323.72-6.25 325.17-4.2 326.62-2.15 330.52-2.15L330.52-2.15Q332.67-2.15 334.49-2.73 336.32-3.3 338.62-4.55L338.62-4.55 339.72-2.35Q337.62-1 335.17-0.23 332.72 0.55 330.27 0.55L330.27 0.55Q325.72 0.55 323.29-2.15 320.87-4.85 320.87-9.45L320.87-9.45Q320.87-10.6 321.02-11.85L321.02-11.85Q321.47-15.35 323.12-18.45 324.77-21.55 327.44-23.48 330.12-25.4 333.47-25.4L333.47-25.4Q336.07-25.4 338.09-24.23 340.12-23.05 341.27-20.98 342.42-18.9 342.42-16.3L342.42-16.3Q342.42-15.85 342.32-14.85L342.32-14.85Q342.17-13.8 341.87-12.6L341.87-12.6Q341.82-12.3 341.62-11.35L341.62-11.35 323.87-11.35ZM324.37-14.05L339.27-14.25 339.47-15.3Q339.52-15.65 339.52-16.35L339.52-16.35Q339.52-19.1 337.77-20.9 336.02-22.7 333.32-22.7L333.32-22.7Q330.32-22.7 327.87-20.43 325.42-18.15 324.37-14.05L324.37-14.05ZM356.36 0.35Q351.66 0.35 349.04-2.35 346.41-5.05 346.41-9.8L346.41-9.8Q346.41-11.05 346.56-12.3L346.56-12.3Q347.06-16.3 348.91-19.33 350.76-22.35 353.61-24 356.46-25.65 359.91-25.65L359.91-25.65Q361.91-25.65 363.49-24.93 365.06-24.2 366.71-22.55L366.71-22.55 364.61-20.85Q363.66-22 362.56-22.48 361.46-22.95 359.81-22.95L359.81-22.95Q355.71-22.95 352.89-19.93 350.06-16.9 349.41-11.85L349.41-11.85Q349.26-10.8 349.26-9.8L349.26-9.8Q349.26-6.2 351.16-4.28 353.06-2.35 356.71-2.35L356.71-2.35Q360.21-2.35 364.71-4.75L364.71-4.75 365.86-2.55Q363.71-1.15 361.21-0.4 358.71 0.35 356.36 0.35L356.36 0.35ZM376.76 0.7Q373.71 0.7 372.16-0.75 370.61-2.2 370.61-5.25L370.61-5.25Q370.61-6.2 370.76-7.3L370.76-7.3 373.91-31.25 376.81-31.25 376.01-25 383.61-25 383.26-22.3 375.61-22.3 373.61-7.1Q373.51-6 373.51-5.65L373.51-5.65Q373.51-3.4 374.44-2.7 375.36-2 376.81-2L376.81-2Q377.81-2 378.54-2.15 379.26-2.3 380.16-2.8L380.16-2.8 381.31-0.4Q379.46 0.7 376.76 0.7L376.76 0.7ZM401.81-20.85Q401.61-21.75 401.06-22.58 400.51-23.4 399.91-23.8L399.91-23.8 401.41-25.8Q403.86-23.9 404.51-20.35L404.51-20.35 407.56-4.35 416.81-25 419.56-25 423.36-4.35 432.61-25 435.41-25 424.21-0.05 421.46-0.05 417.66-20.7 408.41-0.05 405.61-0.05 401.81-20.85ZM436.95 0L440.25-25.05 443.15-25.05 439.85 0 436.95 0ZM442.15-28.25Q441.35-28.25 440.8-28.8 440.25-29.35 440.25-30.15L440.25-30.15Q440.25-31.15 440.9-31.83 441.55-32.5 442.45-32.5L442.45-32.5Q443.3-32.5 443.85-31.95 444.4-31.4 444.4-30.55L444.4-30.55Q444.4-29.6 443.73-28.93 443.05-28.25 442.15-28.25L442.15-28.25ZM454.55 0.7Q451.5 0.7 449.95-0.75 448.4-2.2 448.4-5.25L448.4-5.25Q448.4-6.2 448.55-7.3L448.55-7.3 451.7-31.25 454.6-31.25 453.8-25 461.4-25 461.05-22.3 453.4-22.3 451.4-7.1Q451.3-6 451.3-5.65L451.3-5.65Q451.3-3.4 452.23-2.7 453.15-2 454.6-2L454.6-2Q455.6-2 456.33-2.15 457.05-2.3 457.95-2.8L457.95-2.8 459.1-0.4Q457.25 0.7 454.55 0.7L454.55 0.7ZM468.85-36.3L471.75-36.3 469.75-21.4Q471.55-23.5 473.62-24.5 475.7-25.5 478.3-25.5L478.3-25.5Q481.8-25.5 483.55-23.78 485.3-22.05 485.3-18.9L485.3-18.9Q485.3-18.45 485.2-17.25L485.2-17.25 482.95 0 480 0 482.25-16.9Q482.35-17.8 482.35-18.2L482.35-18.2Q482.35-20.35 481.25-21.53 480.15-22.7 477.9-22.7L477.9-22.7Q475.55-22.7 473.52-21.43 471.5-20.15 469.35-17.65L469.35-17.65 466.95 0 464.05 0 468.85-36.3ZM504.84 0L509.34-34.2 512.29-34.2 507.79 0 504.84 0ZM526.79 0.5Q523.64 0.5 521.29-0.85 518.94-2.2 517.67-4.67 516.39-7.15 516.39-10.35L516.39-10.35Q516.39-11.4 516.54-12.6L516.54-12.6Q516.99-16.35 518.89-19.28 520.79-22.2 523.67-23.85 526.54-25.5 529.94-25.5L529.94-25.5Q533.04-25.5 535.39-24.1 537.74-22.7 539.04-20.23 540.34-17.75 540.34-14.5L540.34-14.5Q540.34-13.5 540.19-12.35L540.19-12.35Q539.69-8.6 537.82-5.68 535.94-2.75 533.07-1.13 530.19 0.5 526.79 0.5L526.79 0.5ZM526.89-2.2Q530.94-2.2 533.82-5.1 536.69-8 537.34-12.65L537.34-12.65Q537.49-13.65 537.49-14.55L537.49-14.55Q537.49-18.3 535.44-20.55 533.39-22.8 529.89-22.8L529.89-22.8Q527.19-22.8 524.94-21.45 522.69-20.1 521.24-17.73 519.79-15.35 519.39-12.3L519.39-12.3Q519.24-11.35 519.24-10.4L519.24-10.4Q519.24-6.65 521.29-4.42 523.34-2.2 526.89-2.2L526.89-2.2ZM548.79 0L552.89-31.4 541.54-31.4 541.94-34.2 567.54-34.2 567.19-31.4 555.84-31.4 551.69 0 548.79 0Z" opacity="1" transform="matrix(1,0,0,1,0,0)" fill="#ffffff" class="slogan-text-1" data-fill-palette-color="quaternary" id="text-1"></path></svg></g></svg></g></svg></g></svg></g><g></g></svg></g></svg></g></svg></g><defs></defs></svg><rect width="448" height="360" fill="none" stroke="none" visibility="hidden"></rect></g></svg></g></svg>